<svg id="Layer_1" data-name="Layer 1" xmlns="http://www.w3.org/2000/svg" viewBox="0 0 172.736 40.647">
  <defs>
    <style>
      .cls-1 {
        fill: #565857;
      }

      .cls-2 {
        fill: #e21e38;
      }

      .cls-3 {
        fill: none;
      }
    </style>
  </defs>
  <title>3a1a39eb-3e31-4e98-b078-66d3cec895cb</title>
  <g>
    <path class="cls-1" d="M69.072,0V33.391H79.356V29.843H72.621V3.548h26.3v7.106h3.545V0H69.072Z"/>
    <path class="cls-2" d="M109.7,23.565l0,0.023a5.38,5.38,0,1,1-10.761,0l0-.023a6.32,6.32,0,1,0-6.32,6.319,5.992,5.992,0,0,0,3.565-1.1l0.115-.091a1.789,1.789,0,0,1,2.528,2.532l-0.014.017a9.865,9.865,0,1,1,.14-15.238,1.769,1.769,0,0,1,3.521.234h0V23.2c0.006,0.122.008,0.243,0.008,0.364v0.015a1.815,1.815,0,0,0,3.629,0l0-.018a13.489,13.489,0,1,0-4.866,10.379l0.041-.031a1.8,1.8,0,0,1,2.558,2.522l-0.021.02-0.006,0A17.076,17.076,0,1,1,109.7,23.565Z"/>
    <line class="cls-3" x1="102.462" y1="16.35" x2="102.462" y2="10.654"/>
    <path class="cls-1" d="M19.474,7.729A1.775,1.775,0,0,0,17.7,9.5h0v4.2H9.865a9.862,9.862,0,1,0,0,19.724H21.249V9.5A1.775,1.775,0,0,0,19.474,7.729ZM17.7,29.883H9.865a6.319,6.319,0,1,1,0-12.638H17.7V29.883Z"/>
    <rect class="cls-1" x="25.634" y="13.723" width="3.545" height="19.701"/>
    <circle class="cls-1" cx="27.405" cy="9.503" r="1.771"/>
    <path class="cls-1" d="M50.473,13.7v0H41.359a9.862,9.862,0,1,0,0,19.724h7.82a3.6,3.6,0,0,1-3.6,3.6v0H33.212a1.777,1.777,0,0,0,0,3.554H45.579v0a7.162,7.162,0,0,0,7.16-7.156h0V13.7H50.473Zm-9.114,16.18a6.319,6.319,0,1,1,0-12.638h7.835V29.884H41.359Z"/>
    <rect class="cls-1" x="57.129" y="13.723" width="3.543" height="19.701"/>
    <circle class="cls-1" cx="58.9" cy="9.503" r="1.772"/>
    <path class="cls-1" d="M131.537,7.729A1.773,1.773,0,0,0,129.766,9.5h0v4.2h-7.835a9.862,9.862,0,1,0,0,19.724h11.38V9.5A1.774,1.774,0,0,0,131.537,7.729Zm-1.774,22.154h-7.835a6.319,6.319,0,1,1,0-12.638h7.835V29.883Z"/>
    <rect class="cls-1" x="137.694" y="13.723" width="3.545" height="19.701"/>
    <circle class="cls-1" cx="139.468" cy="9.503" r="1.771"/>
    <path class="cls-1" d="M162.532,13.7v0h-9.111a9.862,9.862,0,1,0,0,19.724h7.819a3.6,3.6,0,0,1-3.6,3.6v0H145.273a1.777,1.777,0,0,0,0,3.554H157.64v0a7.16,7.16,0,0,0,7.16-7.156h0V13.7h-2.271Zm-9.111,16.18a6.319,6.319,0,1,1,0-12.638h7.838V29.884h-7.838Z"/>
    <rect class="cls-1" x="169.191" y="13.723" width="3.545" height="19.701"/>
    <circle class="cls-1" cx="170.962" cy="9.503" r="1.771"/>
  </g>
</svg>
