<svg id="Layer_1" data-name="Layer 1" xmlns="http://www.w3.org/2000/svg" viewBox="0 0 172.736 40.647">
  <defs>
    <style>
      .cls-1 {
        fill: #fff;
      }

      .cls-2 {
        fill: #e21e38;
      }

      .cls-3 {
        fill: none;
      }
    </style>
  </defs>
  <title>60e0827e-8204-4c44-8fe3-00f556373679</title>
  <g>
    <path class="cls-1" d="M69.072,0V33.391H79.355V29.842H72.621V3.547H98.916v7.106h3.545V0H69.072Z"/>
    <path class="cls-2" d="M109.7,23.564l0,0.023a5.38,5.38,0,1,1-10.76,0l0-.023a6.32,6.32,0,1,0-6.32,6.318,5.991,5.991,0,0,0,3.564-1.1l0.115-.092a1.773,1.773,0,0,1,2.527,0,1.792,1.792,0,0,1,0,2.533l-0.014.016a9.864,9.864,0,1,1,.141-15.236,1.77,1.77,0,0,1,3.522.234h0V23.2c0.006,0.123.008,0.244,0.008,0.365v0.014a1.814,1.814,0,0,0,3.628,0l0-.018a13.492,13.492,0,1,0-4.867,10.379l0.041-.031a1.8,1.8,0,0,1,2.558,2.523l-0.021.02-0.006,0A17.075,17.075,0,1,1,109.7,23.564Z"/>
    <line class="cls-3" x1="102.461" y1="16.349" x2="102.461" y2="10.654"/>
    <path class="cls-1" d="M19.473,7.728A1.774,1.774,0,0,0,17.7,9.5h0v4.2H9.865a9.861,9.861,0,1,0,0,19.722H21.248V9.5A1.773,1.773,0,0,0,19.473,7.728ZM17.7,29.882H9.865a6.319,6.319,0,1,1,0-12.638H17.7V29.882Z"/>
    <rect class="cls-1" x="25.633" y="13.722" width="3.545" height="19.701"/>
    <circle class="cls-1" cx="27.404" cy="9.502" r="1.771"/>
    <path class="cls-1" d="M50.472,13.7v0H41.359a9.862,9.862,0,1,0,0,19.724h7.819a3.606,3.606,0,0,1-3.6,3.6v0H33.211a1.776,1.776,0,0,0,0,3.552H45.578v0a7.161,7.161,0,0,0,7.16-7.156h0V13.7H50.472v0ZM41.359,29.882a6.319,6.319,0,1,1,0-12.638h7.834V29.883H41.359Z"/>
    <rect class="cls-1" x="57.129" y="13.722" width="3.543" height="19.701"/>
    <circle class="cls-1" cx="58.9" cy="9.502" r="1.772"/>
    <path class="cls-1" d="M131.537,7.728A1.773,1.773,0,0,0,129.766,9.5h-0.005v4.2h-7.834a9.861,9.861,0,1,0,0,19.722h11.381V9.5A1.775,1.775,0,0,0,131.537,7.728Zm-1.776,22.154h-7.834a6.319,6.319,0,0,1,0-12.638h7.834V29.882Z"/>
    <rect class="cls-1" x="137.693" y="13.722" width="3.545" height="19.701"/>
    <circle class="cls-1" cx="139.466" cy="9.502" r="1.771"/>
    <path class="cls-1" d="M162.531,13.7v0H153.42a9.862,9.862,0,0,0,0,19.724h7.82a3.606,3.606,0,0,1-3.6,3.6v0H145.273a1.776,1.776,0,0,0,0,3.552h12.365v0a7.158,7.158,0,0,0,7.16-7.156h0V13.7h-2.271v0ZM153.42,29.882a6.319,6.319,0,0,1,0-12.638h7.838V29.883H153.42Z"/>
    <rect class="cls-1" x="169.191" y="13.722" width="3.545" height="19.701"/>
    <circle class="cls-1" cx="170.961" cy="9.502" r="1.771"/>
  </g>
</svg>
